<svg xmlns="http://www.w3.org/2000/svg" width="1600" height="1200" viewBox="0 0 1600 1200">
  <rect width="1600" height="1200" fill="#150f26"/>
  <!-- 심해 분위기 -->
  <circle cx="800" cy="600" r="520" fill="#1d1836" opacity="0.8"/>
  <circle cx="800" cy="600" r="380" fill="#241d45" opacity="0.8"/>
  <!-- 섬들 -->
  <path d="M 500 400 Q 650 300 800 380 Q 950 320 1080 430 Q 1150 560 1050 680
           Q 1100 800 950 850 Q 780 920 650 830 Q 480 780 520 620 Q 440 500 500 400 Z"
        fill="#3a3160" stroke="#544a85" stroke-width="5"/>
  <ellipse cx="380" cy="850" rx="120" ry="80" fill="#332b55" stroke="#544a85" stroke-width="4"/>
  <ellipse cx="1250" cy="850" rx="140" ry="90" fill="#332b55" stroke="#544a85" stroke-width="4"/>
  <ellipse cx="1220" cy="300" rx="100" ry="70" fill="#332b55" stroke="#544a85" stroke-width="4"/>
  <!-- 연결 다리 -->
  <g stroke="#544a85" stroke-width="6" opacity="0.6" fill="none">
    <path d="M 640 800 Q 500 830 470 840"/>
    <path d="M 1030 750 Q 1150 800 1180 820"/>
    <path d="M 1050 470 Q 1150 380 1170 340"/>
  </g>
  <!-- 태양 상징 -->
  <circle cx="800" cy="600" r="46" fill="#c9a84c" opacity="0.9"/>
  <g stroke="#c9a84c" stroke-width="4" opacity="0.7">
    <path d="M800 520v-40M800 680v40M720 600h-40M880 600h40M745 545l-28-28M855 545l28-28M745 655l-28 28M855 655l28 28"/>
  </g>
  <text x="800" y="110" font-family="sans-serif" font-size="46" fill="#e8eaf0" text-anchor="middle" opacity="0.85">연하궁 (임시 이미지)</text>
  <text x="800" y="160" font-family="sans-serif" font-size="24" fill="#9aa3b8" text-anchor="middle">실제 맵 이미지로 교체 예정</text>
</svg>
